<svg width="24" height="22" viewBox="0 0 24 22" fill="none" xmlns="http://www.w3.org/2000/svg">
<path d="M9 1.83333C5.14585 1.83333 2 4.71703 2 8.25C2 11.783 5.14585 14.6667 9 14.6667C10.748 14.6667 12.345 14.069 13.5742 13.0911L14 13.4814V14.6667L19.5859 19.7871C20.1379 20.2931 21.0339 20.2931 21.5859 19.7871C22.1379 19.2811 22.1379 18.4598 21.5859 17.9538L16 12.8333H14.707L14.2812 12.443C15.348 11.3163 16 9.85233 16 8.25C16 4.71703 12.8541 1.83333 9 1.83333ZM9 3.66667C11.7733 3.66667 14 5.70784 14 8.25C14 10.7922 11.7733 12.8333 9 12.8333C6.22673 12.8333 4 10.7922 4 8.25C4 5.70784 6.22673 3.66667 9 3.66667Z" fill="black"/>
</svg>
